HIERARCHY
ROOT Hips
{
    OFFSET 0.000000 0.000000 0.000000
    CHANNELS 6 Xposition Yposition Zposition Zrotation Xrotation Yrotation
    JOINT Spine
    {
        OFFSET -0.000000 7.246840 0.000000
        CHANNELS 3 Zrotation Xrotation Yrotation
        JOINT Spine1
        {
            OFFSET -0.000000 20.289354 0.000000
            CHANNELS 3 Zrotation Xrotation Yrotation
            JOINT Neck
            {
                OFFSET -0.000000 20.206032 1.836912
                CHANNELS 3 Zrotation Xrotation Yrotation
                JOINT Head
                {
                    OFFSET -0.000000 12.372654 -1.767522
                    CHANNELS 3 Zrotation Xrotation Yrotation
                    End Site
                    {
                        OFFSET -0.000000 22.094025 0.000000
                    }
                }
            }
            JOINT LeftShoulder
            {
                OFFSET 3.465871 17.201674 -0.568930
                CHANNELS 3 Zrotation Xrotation Yrotation
                JOINT LeftArm
                {
                    OFFSET 14.070313 0.000000 0.000000
                    CHANNELS 3 Zrotation Xrotation Yrotation
                    JOINT LeftForeArm
                    {
                        OFFSET 26.549477 0.000000 0.000000
                        CHANNELS 3 Zrotation Xrotation Yrotation
                        JOINT LeftHand
                        {
                            OFFSET 18.880413 0.000000 0.000000
                            CHANNELS 3 Zrotation Xrotation Yrotation
                            End Site
                            {
                                OFFSET 13.256415 0.000000 0.000000
                            }
                        }
                    }
                }
            }
            JOINT RightShoulder
            {
                OFFSET -3.526370 17.201674 -0.568930
                CHANNELS 3 Zrotation Xrotation Yrotation
                JOINT RightArm
                {
                    OFFSET -14.070313 0.000000 0.000000
                    CHANNELS 3 Zrotation Xrotation Yrotation
                    JOINT RightForeArm
                    {
                        OFFSET -26.549477 0.000000 0.000000
                        CHANNELS 3 Zrotation Xrotation Yrotation
                        JOINT RightHand
                        {
                            OFFSET -18.880413 0.000000 0.000000
                            CHANNELS 3 Zrotation Xrotation Yrotation
                            End Site
                            {
                                OFFSET -13.256415 0.000000 0.000000
                            }
                        }
                    }
                }
            }
        }
    }
    JOINT LeftUpLeg
    {
        OFFSET 8.837609 0.000000 0.000000
        CHANNELS 3 Zrotation Xrotation Yrotation
        JOINT LeftLeg
        {
            OFFSET -0.000000 -41.345005 0.000000
            CHANNELS 3 Zrotation Xrotation Yrotation
            JOINT LeftFoot
            {
                OFFSET -0.000000 -35.500874 0.000000
                CHANNELS 3 Zrotation Xrotation Yrotation
                JOINT LeftToeBase
                {
                    OFFSET -0.000000 -5.744446 13.256415
                    CHANNELS 3 Zrotation Xrotation Yrotation
                    End Site
                    {
                        OFFSET -0.000000 0.000000 3.535044
                    }
                }
            }
        }
    }
    JOINT RightUpLeg
    {
        OFFSET -8.837609 0.000000 0.000000
        CHANNELS 3 Zrotation Xrotation Yrotation
        JOINT RightLeg
        {
            OFFSET -0.000000 -41.345005 0.000000
            CHANNELS 3 Zrotation Xrotation Yrotation
            JOINT RightFoot
            {
                OFFSET -0.000000 -35.500874 0.000000
                CHANNELS 3 Zrotation Xrotation Yrotation
                JOINT RightToeBase
                {
                    OFFSET -0.000000 -5.744446 13.256415
                    CHANNELS 3 Zrotation Xrotation Yrotation
                    End Site
                    {
                        OFFSET -0.000000 0.000000 3.535044
                    }
                }
            }
        }
    }
}
MOTION
Frames:    7
Frame Time:    0.010000
2.627510    82.167610    23.013647    5.652180    1.474612    3.225416    -3.938245    -7.371501    0.489148    -2.302946    19.195168    1.132433    1.550618    26.027958    -7.269632    4.847275    -35.681625    -5.255454    7.951524    2.303518    5.927512    -78.219971    43.864883    -12.687254    5.833247    -14.651422    -19.315836    -36.546177    -12.397120    -4.011730    -1.512412    -1.184975    19.330582    59.899662    49.258633    21.170834    -10.229336    -10.418051    30.917711    17.058825    -5.113468    16.673044    -4.693802    -13.211951    -2.651539    -0.870466    3.118548    -1.738049    1.924787    9.697031    -10.938056    -0.528257    -2.692916    0.751842    -5.308329    1.731762    -7.630852    3.562569    8.158898    4.507676    -0.360140    -10.640896    -10.181744    -0.973754    -1.251289    1.770194    
2.771376    82.126328    23.430447    5.505759    1.550649    3.085381    -3.894164    -7.596699    0.519805    -2.134669    19.179283    1.139153    1.551144    26.144785    -7.271754    4.755332    -35.626461    -5.298905    7.887940    2.247566    5.942907    -78.286522    44.131924    -12.811325    5.798660    -14.751805    -19.385551    -36.493843    -12.515947    -3.970498    -1.524919    -1.223530    19.300817    60.399780    49.314022    20.850204    -10.221698    -10.163617    30.457808    16.910168    -4.958947    16.443794    -4.667146    -13.013777    -2.359039    -0.844447    3.183082    -2.368570    2.028750    9.214775    -10.429399    -0.883251    -1.957422    1.251304    -5.235666    1.916260    -7.565460    3.496677    8.185572    4.428102    -0.121955    -10.832438    -10.007198    -0.992848    -1.413269    1.808143    
2.913281    82.082962    23.829870    5.394186    1.653947    2.889886    -3.922037    -7.790473    0.562641    -1.966254    19.093544    1.160511    1.633601    26.295414    -7.256958    4.622478    -35.663570    -5.330547    7.896785    2.222504    5.991592    -78.448944    44.314896    -12.944290    5.790701    -14.828353    -19.433439    -36.522263    -12.599156    -3.945402    -1.474801    -1.121874    19.244522    60.702553    49.301056    20.675728    -10.189125    -9.889671    29.970095    16.782114    -4.778991    16.290667    -4.624529    -12.818256    -2.203375    -0.852928    3.087865    -2.461457    2.342269    9.262433    -9.929396    -0.736722    -1.153655    1.038567    -5.186811    2.023148    -7.446385    3.396370    8.272940    4.427774    0.110672    -11.029878    -9.925471    -1.009429    -1.579099    1.841732    
3.080249    82.053841    24.261602    5.352767    1.648876    2.581771    -3.964003    -7.947971    0.672636    -1.821021    19.096485    1.254483    1.610697    26.429466    -7.230077    4.625048    -35.738319    -5.298498    7.802238    2.163160    6.004887    -78.463806    44.532471    -13.093629    5.759693    -14.835888    -19.558037    -36.578232    -12.600452    -3.955091    -1.456310    -1.040376    19.172770    61.084538    49.233315    20.435308    -10.105343    -9.775003    29.374794    16.700867    -4.720983    16.508743    -4.673797    -12.431479    -2.011024    -0.810419    2.806835    -2.260382    3.330306    9.677290    -9.839766    -0.526623    -0.891638    0.741207    -5.230455    2.228839    -7.253082    3.292985    8.392740    4.458738    0.345334    -11.213008    -9.820382    -1.012191    -1.788293    1.851089    
3.290721    82.037697    24.718206    5.304716    1.650209    2.616948    -3.925890    -8.189717    0.609376    -1.774520    19.228844    1.191120    1.627893    26.525234    -7.246889    4.648963    -35.788673    -5.300049    7.760390    2.074207    5.975103    -78.432663    44.977818    -13.211887    5.724764    -14.990680    -19.777756    -36.710197    -12.727741    -4.013409    -1.399549    -0.941923    19.133692    61.405537    49.134930    20.227928    -10.014013    -9.404434    28.805702    16.546120    -4.484849    16.248573    -4.803285    -12.083419    -2.430044    -0.779428    2.663886    -2.053254    3.872149    9.710593    -9.790051    -0.617372    -0.741490    0.868139    -5.286408    2.549833    -7.322691    3.223551    8.417322    4.250571    0.629252    -11.370336    -9.552555    -1.018595    -1.985360    1.866923    
3.461783    82.024803    25.123518    5.344929    1.686420    2.410127    -4.083082    -8.350449    0.665495    -1.650496    19.253813    1.243719    1.681251    26.622826    -7.235337    4.668929    -35.893955    -5.267891    7.720621    2.048357    6.004019    -78.245201    45.331059    -13.548786    5.658992    -14.961797    -19.983294    -36.922443    -12.557919    -4.422930    -1.334487    -0.871485    19.116962    61.770935    49.021763    19.956631    -9.873033    -9.084884    28.193821    16.344551    -4.296999    16.158649    -4.916132    -11.862315    -2.657302    -0.641767    2.727229    -2.564199    3.955250    9.606520    -8.818969    -0.529637    -0.561543    0.743959    -5.380672    2.656225    -7.256415    3.028331    8.668966    4.417605    0.884933    -11.576415    -9.591401    -1.033429    -2.218575    1.899091    
3.611108    82.037148    25.505156    5.394761    1.665665    2.202678    -4.294415    -8.383791    0.731970    -1.502651    19.224876    1.301428    1.778515    26.721788    -7.233604    4.669415    -36.035252    -5.248528    7.760449    1.961093    5.932329    -78.134605    45.812893    -13.756705    5.643747    -15.041271    -20.276251    -37.171906    -12.586486    -4.512215    -1.262424    -0.811990    19.097778    62.199532    48.794182    19.616087    -9.636846    -8.617251    27.544264    16.008114    -3.981924    16.223564    -4.961201    -11.664048    -2.912036    -0.803630    3.003633    -2.687390    4.279145    9.218288    -8.282594    -0.693787    -0.174639    0.972260    -5.432226    2.760053    -7.158707    2.686920    9.009974    4.652247    1.230993    -11.800303    -9.697812    -1.031182    -2.485114    1.900693    
